<svg width="80" height="80" viewBox="0 0 80 80" fill="none" xmlns="http://www.w3.org/2000/svg">
<path d="M40.1852 0V5.35108L19.383 13.0771C19.0328 13.2033 19.265 13.4668 19.2728 13.6931C19.6978 25.3564 23.0186 36.4296 29.5657 46.3043C32.5599 50.8204 36.1955 54.9358 40.1852 58.6875V66.1909C39.6225 65.9125 38.5995 64.9922 38.0683 64.5544C29.2116 57.2848 22.0546 48.0966 17.8564 37.7062C14.9881 30.5999 13.4929 23.0185 13.1782 15.4113L7.33136 17.6823C8.03172 28.3177 11.0259 38.7638 16.5501 48.041C22.3497 57.782 30.7146 65.9571 40.1852 72.581V79.9248C39.7917 79.8061 39.17 79.3459 38.8041 79.1121C29.4555 73.1302 20.8821 64.8883 14.8386 55.8858C6.51691 43.4914 2.36198 29.0116 2 14.3314L2.05508 14.2052L40.1852 0Z" fill="#6F6F6F"/>
<path d="M40.1026 10.7801C40.2443 10.8617 40.1852 11.0844 40.1892 11.218C40.2128 13.3591 40.1892 15.504 40.1892 17.6452V22.9963C40.1892 32.0694 40.1892 41.1499 40.1892 50.223C39.9374 50.0894 39.3629 49.4363 39.1308 49.1876C31.1318 40.6267 26.2017 28.7296 25.7925 17.2927C25.7847 17.0218 25.7453 15.7044 25.8791 15.6116C30.6793 14.157 35.3851 12.4463 40.1026 10.7838" fill="#6F6F6F"/>
<path d="M40.1854 0L40.567 0.0779365L78.402 14.2052L78.4571 14.3314C78.3587 26.9075 74.975 39.3464 68.6442 50.3603C61.8413 62.1942 51.8711 72.1283 40.3467 79.973C40.2444 80.051 40.209 79.9359 40.1854 79.9285V72.5847C48.3575 67.0332 55.605 60.0753 61.0465 52.0561C68.0344 41.7548 71.8824 29.8614 73.1257 17.6897L73.0667 17.5636C65.2998 14.5912 57.4464 11.8228 49.6481 8.92836C46.4886 7.75573 43.3488 6.49404 40.1893 5.3548V0.0037145L40.1854 0Z" fill="#393939"/>
<path d="M40.1853 66.1946V58.6875C43.1677 56.0342 45.8432 53.0024 48.2118 49.8519C53.7832 42.4339 57.8279 33.936 59.9172 25.0336L40.1853 17.6452C40.1853 15.504 40.2089 13.3592 40.1853 11.218C40.1853 11.0844 40.2404 10.8617 40.0987 10.7801L40.3505 10.7281L66.7949 20.2169L66.9444 20.4024C65.5634 30.4552 62.1088 40.1665 56.4784 48.7794C52.1385 55.4182 46.5436 61.2591 40.2285 66.2725C40.2049 66.2725 40.201 66.202 40.1892 66.1946" fill="#393939"/>
<path d="M40.1852 22.9962L53.0592 27.8241C50.7811 35.5278 46.7521 43.2353 41.1964 49.3026C40.9446 49.5772 40.5905 50.0077 40.3072 50.2266C40.1459 50.3491 40.2325 50.2526 40.1813 50.2266V22.9999" fill="#393939"/>
</svg>
