<svg width="195" height="216" viewBox="0 0 195 216" fill="none" xmlns="http://www.w3.org/2000/svg">
<path d="M97.13 0.209991V14.63L44.26 35.45C43.37 35.79 43.96 36.5 43.98 37.11C45.06 68.54 53.5 98.38 70.14 124.99C77.75 137.16 86.99 148.25 97.13 158.36V178.58C95.7 177.83 93.1 175.35 91.75 174.17C69.24 154.58 51.05 129.82 40.38 101.82C33.09 82.67 29.29 62.24 28.49 41.74L13.63 47.86C15.41 76.52 23.02 104.67 37.06 129.67C51.8 155.92 73.06 177.95 97.13 195.8V215.59C96.13 215.27 94.55 214.03 93.62 213.4C69.86 197.28 48.07 175.07 32.71 150.81C11.56 117.41 1 78.39 0.0800018 38.83L0.220001 38.49L97.13 0.209991Z" fill="#B6372D"/>
<path d="M97.13 0.209991L98.1 0.420013L194.26 38.49L194.4 38.83C194.15 72.72 185.55 106.24 169.46 135.92C152.17 167.81 126.83 194.58 97.54 215.72C97.28 215.93 97.19 215.62 97.13 215.6V195.81C117.9 180.85 136.32 162.1 150.15 140.49C167.91 112.73 177.69 80.68 180.85 47.88L180.7 47.54C160.96 39.53 141 32.07 121.18 24.27C113.15 21.11 105.17 17.71 97.14 14.64V0.220001L97.13 0.209991Z" fill="#013398"/>
<path d="M97.13 178.59V158.36C104.71 151.21 111.51 143.04 117.53 134.55C131.69 114.56 141.97 91.66 147.28 67.67L97.13 47.76C97.13 41.99 97.19 36.21 97.13 30.44C97.13 30.08 97.27 29.48 96.91 29.26L97.55 29.12L164.76 54.69L165.14 55.19C161.63 82.28 152.85 108.45 138.54 131.66C127.51 149.55 113.29 165.29 97.24 178.8C97.18 178.8 97.17 178.61 97.14 178.59" fill="#013398"/>
<path d="M96.92 29.26C97.28 29.48 97.13 30.08 97.14 30.44C97.2 36.21 97.14 41.99 97.14 47.76V62.18C97.14 86.63 97.14 111.1 97.14 135.55C96.5 135.19 95.04 133.43 94.45 132.76C74.12 109.69 61.59 77.63 60.55 46.81C60.53 46.08 60.43 42.53 60.77 42.28C72.97 38.36 84.93 33.75 96.92 29.27" fill="#B6372D"/>
<path d="M97.13 62.18L129.85 75.19C124.06 95.95 113.82 116.72 99.7 133.07C99.06 133.81 98.16 134.97 97.44 135.56C97.03 135.89 97.25 135.63 97.12 135.56V62.19" fill="#013398"/>
</svg>
