<svg width="186" height="96" viewBox="0 0 186 96" fill="none" xmlns="http://www.w3.org/2000/svg">
<path d="M92.9701 0V3.713L78.6114 9.07393C78.3697 9.16147 78.5299 9.34429 78.5353 9.50135C78.8287 17.5942 81.1208 25.2777 85.64 32.1295C87.7068 35.2632 90.2162 38.1187 92.9701 40.7219V45.9284C92.5817 45.7353 91.8756 45.0967 91.5089 44.7928C85.3956 39.7486 80.4555 33.3732 77.5576 26.1635C75.5778 21.2326 74.5458 15.9721 74.3285 10.6935L70.2928 12.2694C70.7762 19.649 72.8429 26.8973 76.656 33.3346C80.6591 40.0937 86.433 45.7661 92.9701 50.3623V55.4581C92.6985 55.3757 92.2694 55.0564 92.0168 54.8941C85.564 50.7434 79.6461 45.0246 75.4746 38.7779C69.7306 30.1777 66.8627 20.1305 66.6128 9.94423L66.6508 9.85669L92.9701 0Z" fill="#6F6F6F"/>
<path d="M92.9132 7.48007C93.0109 7.53672 92.9702 7.69121 92.9729 7.78391C92.9892 9.26962 92.9729 10.7579 92.9729 12.2436V15.9566C92.9729 22.2522 92.9729 28.553 92.9729 34.8486C92.7991 34.7559 92.4026 34.3027 92.2423 34.1302C86.721 28.1899 83.3181 19.9348 83.0356 11.999C83.0302 11.811 83.003 10.897 83.0954 10.8326C86.4087 9.82322 89.6569 8.63619 92.9132 7.48264" fill="#6F6F6F"/>
<path d="M92.9702 0L93.2337 0.0540784L119.349 9.85669L119.387 9.94423C119.319 18.6705 116.984 27.3016 112.614 34.9439C107.918 43.1552 101.036 50.0482 93.0816 55.4915C93.011 55.5456 92.9865 55.4658 92.9702 55.4606V50.3649C98.611 46.5129 103.614 41.6849 107.37 36.1206C112.193 28.9727 114.849 20.7202 115.707 12.2745L115.667 12.187C110.305 10.1245 104.885 8.20361 99.5018 6.19519C97.321 5.38153 95.1538 4.50607 92.9729 3.71558V0.00257741L92.9702 0Z" fill="#393939"/>
<path d="M92.9701 45.931V40.7219C95.0288 38.8809 96.8755 36.7772 98.5105 34.5911C102.356 29.4439 105.148 23.5474 106.59 17.3702L92.9701 12.2436C92.9701 10.7579 92.9864 9.26963 92.9701 7.78392C92.9701 7.69122 93.0082 7.53673 92.9104 7.48008L93.0842 7.44403L111.337 14.028L111.441 14.1568C110.487 21.1322 108.103 27.8707 104.216 33.847C101.221 38.4535 97.359 42.5063 93 45.985C92.9837 45.985 92.981 45.9361 92.9729 45.931" fill="#393939"/>
<path d="M92.9701 15.9566L101.856 19.3065C100.284 24.652 97.5029 30.0001 93.6681 34.21C93.4943 34.4006 93.2499 34.6993 93.0543 34.8512C92.943 34.9361 93.0027 34.8692 92.9674 34.8512V15.9592" fill="#393939"/>
<path d="M7.128 87.7982C5.944 87.7982 4.864 87.6062 3.888 87.2222C2.928 86.8222 2.152 86.2302 1.56 85.4462C0.984 84.6462 0.672 83.6382 0.624 82.4222H4.608C4.672 82.9822 4.896 83.4862 5.28 83.9342C5.68 84.3822 6.28 84.6062 7.08 84.6062C7.768 84.6062 8.28 84.4542 8.616 84.1502C8.968 83.8462 9.144 83.4462 9.144 82.9502C9.144 82.7262 9.104 82.5182 9.024 82.3262C8.96 82.1342 8.824 81.9502 8.616 81.7742C8.408 81.5822 8.088 81.3902 7.656 81.1982C7.24 81.0062 6.68 80.7982 5.976 80.5742C4.664 80.1582 3.64 79.6702 2.904 79.1102C2.168 78.5502 1.648 77.9502 1.344 77.3102C1.056 76.6702 0.912 76.0142 0.912 75.3422C0.928 74.2542 1.2 73.3502 1.728 72.6302C2.256 71.8942 2.96 71.3422 3.84 70.9742C4.72 70.6062 5.704 70.4222 6.792 70.4222C7.88 70.4222 8.872 70.6142 9.768 70.9982C10.68 71.3662 11.416 71.9182 11.976 72.6542C12.536 73.3902 12.824 74.3022 12.84 75.3902H8.76C8.744 74.9582 8.56 74.5502 8.208 74.1662C7.856 73.7822 7.336 73.5902 6.648 73.5902C6.152 73.6062 5.728 73.7502 5.376 74.0222C5.04 74.2782 4.872 74.6462 4.872 75.1262C4.872 75.5422 5.048 75.9022 5.4 76.2062C5.752 76.5102 6.248 76.7902 6.888 77.0462C7.544 77.3022 8.304 77.5742 9.168 77.8622C9.824 78.0862 10.4 78.3502 10.896 78.6542C11.408 78.9422 11.832 79.2862 12.168 79.6862C12.504 80.0702 12.76 80.5102 12.936 81.0062C13.112 81.5022 13.2 82.0622 13.2 82.6862C13.2 83.7102 12.936 84.6062 12.408 85.3742C11.896 86.1422 11.184 86.7422 10.272 87.1742C9.36 87.5902 8.312 87.7982 7.128 87.7982ZM15.3161 87.5102V70.7102H26.3561V73.9742H19.1081V77.0222H25.2281V80.2862H19.1081V84.2462H26.3561V87.5102H15.3161ZM28.6605 87.5102V70.7102H32.4525L39.6285 81.2942V70.7102H43.4205V87.5102H39.6285L32.4525 76.9742V87.5102H28.6605ZM49.9481 87.5102V73.9742H45.1241V70.7102H58.5641V73.9742H53.7161V87.5102H49.9481ZM60.318 87.5102V70.7102H66.726C67.878 70.7102 68.894 70.9102 69.774 71.3102C70.654 71.7102 71.342 72.2862 71.838 73.0382C72.334 73.7742 72.582 74.6542 72.582 75.6782C72.582 76.7982 72.278 77.7342 71.67 78.4862C71.062 79.2382 70.222 79.7742 69.15 80.0942L73.734 87.5102H69.366L65.358 80.6702H64.11V87.5102H60.318ZM64.11 77.4542H66.654C67.246 77.4542 67.686 77.3662 67.974 77.1902C68.278 76.9982 68.486 76.7662 68.598 76.4942C68.71 76.2222 68.766 75.9502 68.766 75.6782C68.766 75.4062 68.71 75.1422 68.598 74.8862C68.486 74.6142 68.278 74.3902 67.974 74.2142C67.686 74.0382 67.246 73.9502 66.654 73.9502H64.11V77.4542ZM78.8295 87.5102V80.5262L73.0695 70.7102H77.3655L80.7495 76.6862L84.1095 70.7102H88.3335L82.5975 80.5262V87.5102H78.8295Z" fill="#393939"/>
<path d="M106.077 87.7982C104.477 87.7982 103.085 87.4302 101.901 86.6942C100.733 85.9582 99.8208 84.9422 99.1648 83.6462C98.5088 82.3502 98.1808 80.8542 98.1808 79.1582C98.1808 77.5102 98.5008 76.0302 99.1408 74.7182C99.7808 73.3902 100.717 72.3422 101.949 71.5742C103.197 70.8062 104.701 70.4222 106.461 70.4222C108.397 70.4222 109.997 70.8862 111.261 71.8142C112.541 72.7422 113.373 74.0222 113.757 75.6542H110.877C110.637 74.7582 110.133 74.0542 109.365 73.5422C108.613 73.0142 107.645 72.7502 106.461 72.7502C105.245 72.7502 104.213 73.0222 103.365 73.5662C102.517 74.1102 101.877 74.8622 101.445 75.8222C101.013 76.7822 100.797 77.9022 100.797 79.1822C100.797 80.4462 101.013 81.5582 101.445 82.5182C101.877 83.4782 102.501 84.2222 103.317 84.7502C104.149 85.2622 105.125 85.5182 106.245 85.5182C107.861 85.5182 109.085 85.0782 109.917 84.1982C110.765 83.3022 111.277 82.0942 111.453 80.5742H105.741V78.4862H114.069V87.5102H111.717L111.525 85.0142C110.949 85.9102 110.237 86.5982 109.389 87.0782C108.541 87.5582 107.437 87.7982 106.077 87.7982ZM125.247 87.7982C123.743 87.7982 122.519 87.4942 121.575 86.8862C120.631 86.2782 119.935 85.4702 119.487 84.4622C119.055 83.4542 118.839 82.3662 118.839 81.1982V70.7102H121.383V81.2222C121.383 82.6942 121.735 83.7742 122.439 84.4622C123.159 85.1502 124.111 85.4942 125.295 85.4942C126.479 85.4942 127.423 85.1502 128.127 84.4622C128.831 83.7742 129.183 82.6942 129.183 81.2222V70.7102H131.727V81.1982C131.727 82.4462 131.535 83.4942 131.151 84.3422C130.767 85.1902 130.255 85.8702 129.615 86.3822C128.975 86.8782 128.271 87.2382 127.503 87.4622C126.751 87.6862 125.999 87.7982 125.247 87.7982ZM135.057 87.5102L141.225 70.7102H144.009L150.177 87.5102H147.465L146.049 83.4302H139.161L137.721 87.5102H135.057ZM139.905 81.3902H145.305L142.593 73.7342L139.905 81.3902ZM154.322 87.5102V70.7102H159.722C160.906 70.7102 161.914 70.8942 162.746 71.2622C163.594 71.6142 164.25 72.1422 164.714 72.8462C165.178 73.5502 165.41 74.4222 165.41 75.4622C165.41 76.7262 165.082 77.7102 164.426 78.4142C163.77 79.1022 162.874 79.5662 161.738 79.8062L166.49 87.5102H163.418L159.194 80.2382H156.866V87.5102H154.322ZM156.866 78.0782H159.674C160.474 78.0782 161.106 77.9742 161.57 77.7662C162.034 77.5582 162.354 77.2622 162.53 76.8782C162.722 76.4782 162.818 76.0062 162.818 75.4622C162.818 74.9182 162.722 74.4542 162.53 74.0702C162.354 73.6702 162.034 73.3662 161.57 73.1582C161.106 72.9502 160.474 72.8462 159.674 72.8462H156.866V78.0782ZM170.726 87.5102V70.7102H176.174C178.174 70.7102 179.806 71.0542 181.07 71.7422C182.35 72.4302 183.294 73.4062 183.902 74.6702C184.51 75.9342 184.814 77.4222 184.814 79.1342C184.814 80.8942 184.494 82.3982 183.854 83.6462C183.214 84.8942 182.254 85.8542 180.974 86.5262C179.694 87.1822 178.094 87.5102 176.174 87.5102H170.726ZM173.27 85.3502H176.078C177.598 85.3502 178.798 85.1022 179.678 84.6062C180.574 84.1102 181.214 83.3982 181.598 82.4702C181.998 81.5422 182.198 80.4302 182.198 79.1342C182.198 76.9902 181.702 75.4062 180.71 74.3822C179.718 73.3582 178.174 72.8462 176.078 72.8462H173.27V85.3502Z" fill="#6F6F6F"/>
</svg>
